<svg width="126" height="50" viewBox="0 0 126 50" fill="none" xmlns="http://www.w3.org/2000/svg">
<path d="M64.5464 13.6782H66.4023V15.6777H64.5464V19H62.0547V15.6777H55.605L55.5332 14.1602L61.9727 4.07031H64.5464V13.6782ZM58.1479 13.6782H62.0547V7.44385L61.8701 7.77197L58.1479 13.6782ZM77.7842 12.7144C77.7842 14.8608 77.3809 16.481 76.5742 17.5747C75.7744 18.6616 74.5542 19.2051 72.9136 19.2051C71.3003 19.2051 70.0835 18.6753 69.2632 17.6157C68.4497 16.5493 68.0327 14.9736 68.0122 12.8887V10.3047C68.0122 8.1582 68.4121 6.54834 69.2119 5.4751C70.0186 4.40186 71.2456 3.86523 72.8931 3.86523C74.5269 3.86523 75.7437 4.38818 76.5435 5.43408C77.3501 6.47998 77.7637 8.04541 77.7842 10.1304V12.7144ZM75.2925 9.92529C75.2925 8.52393 75.1011 7.49854 74.7183 6.84912C74.3354 6.19287 73.7271 5.86475 72.8931 5.86475C72.0796 5.86475 71.4814 6.17578 71.0986 6.79785C70.7158 7.41309 70.5142 8.37695 70.4937 9.68945V13.0732C70.4937 14.4678 70.6885 15.5068 71.0781 16.1904C71.4678 16.874 72.0796 17.2158 72.9136 17.2158C73.7134 17.2158 74.3047 16.9014 74.6875 16.2725C75.0703 15.6367 75.272 14.6455 75.2925 13.2988V9.92529ZM85.9053 10.7866H89.8018V13.063H85.9053V17.5029H83.4854V13.063H79.5684V10.7866H83.4854V6.63379H85.9053V10.7866Z" fill="white"/>
<path d="M63.0078 44H61.5625V36.7422H57.6719V44H56.2188V35.5469H63.0078V44ZM72.4688 39.8672C72.4688 41.1536 72.1745 42.1901 71.5859 42.9766C70.9974 43.763 70.2005 44.1562 69.1953 44.1562C68.1693 44.1562 67.362 43.8307 66.7734 43.1797V47.25H65.3281V35.5469H66.6484L66.7188 36.4844C67.3073 35.7552 68.125 35.3906 69.1719 35.3906C70.1875 35.3906 70.9896 35.7734 71.5781 36.5391C72.1719 37.3047 72.4688 38.3698 72.4688 39.7344V39.8672ZM71.0234 39.7031C71.0234 38.75 70.8203 37.9974 70.4141 37.4453C70.0078 36.8932 69.4505 36.6172 68.7422 36.6172C67.8672 36.6172 67.2109 37.0052 66.7734 37.7812V41.8203C67.2057 42.5911 67.8672 42.9766 68.7578 42.9766C69.4505 42.9766 70 42.7031 70.4062 42.1562C70.8177 41.6042 71.0234 40.7865 71.0234 39.7031ZM73.9297 39.6953C73.9297 38.8672 74.0911 38.1224 74.4141 37.4609C74.7422 36.7995 75.1953 36.2891 75.7734 35.9297C76.3568 35.5703 77.0208 35.3906 77.7656 35.3906C78.9167 35.3906 79.8464 35.7891 80.5547 36.5859C81.2682 37.3828 81.625 38.4427 81.625 39.7656V39.8672C81.625 40.6901 81.4661 41.4297 81.1484 42.0859C80.8359 42.737 80.3854 43.2448 79.7969 43.6094C79.2135 43.974 78.5417 44.1562 77.7812 44.1562C76.6354 44.1562 75.7057 43.7578 74.9922 42.9609C74.2839 42.1641 73.9297 41.1094 73.9297 39.7969V39.6953ZM75.3828 39.8672C75.3828 40.8047 75.599 41.5573 76.0312 42.125C76.4688 42.6927 77.0521 42.9766 77.7812 42.9766C78.5156 42.9766 79.099 42.6901 79.5312 42.1172C79.9635 41.5391 80.1797 40.7318 80.1797 39.6953C80.1797 38.7682 79.9583 38.0182 79.5156 37.4453C79.0781 36.8672 78.4948 36.5781 77.7656 36.5781C77.0521 36.5781 76.4766 36.862 76.0391 37.4297C75.6016 37.9974 75.3828 38.8099 75.3828 39.8672ZM86.9453 44.1562C85.7995 44.1562 84.8672 43.7812 84.1484 43.0312C83.4297 42.276 83.0703 41.2682 83.0703 40.0078V39.7422C83.0703 38.9036 83.2292 38.1562 83.5469 37.5C83.8698 36.8385 84.3177 36.3229 84.8906 35.9531C85.4688 35.5781 86.0938 35.3906 86.7656 35.3906C87.8646 35.3906 88.7188 35.7526 89.3281 36.4766C89.9375 37.2005 90.2422 38.237 90.2422 39.5859V40.1875H84.5156C84.5365 41.0208 84.7786 41.6953 85.2422 42.2109C85.7109 42.7214 86.3047 42.9766 87.0234 42.9766C87.5339 42.9766 87.9661 42.8724 88.3203 42.6641C88.6745 42.4557 88.9844 42.1797 89.25 41.8359L90.1328 42.5234C89.4245 43.612 88.362 44.1562 86.9453 44.1562ZM86.7656 36.5781C86.1823 36.5781 85.6927 36.7917 85.2969 37.2188C84.901 37.6406 84.6562 38.2344 84.5625 39H88.7969V38.8906C88.7552 38.1562 88.5573 37.5885 88.2031 37.1875C87.849 36.7812 87.3698 36.5781 86.7656 36.5781ZM94.5547 40.3984H93.5V44H92.0469V35.5469H93.5V39.125H94.4453L97.2891 35.5469H99.0391L95.6953 39.6094L99.3203 44H97.4844L94.5547 40.3984ZM106.844 36.7188H104.008V44H102.562V36.7188H99.7812V35.5469H106.844V36.7188ZM107.539 39.6953C107.539 38.8672 107.701 38.1224 108.023 37.4609C108.352 36.7995 108.805 36.2891 109.383 35.9297C109.966 35.5703 110.63 35.3906 111.375 35.3906C112.526 35.3906 113.456 35.7891 114.164 36.5859C114.878 37.3828 115.234 38.4427 115.234 39.7656V39.8672C115.234 40.6901 115.076 41.4297 114.758 42.0859C114.445 42.737 113.995 43.2448 113.406 43.6094C112.823 43.974 112.151 44.1562 111.391 44.1562C110.245 44.1562 109.315 43.7578 108.602 42.9609C107.893 42.1641 107.539 41.1094 107.539 39.7969V39.6953ZM108.992 39.8672C108.992 40.8047 109.208 41.5573 109.641 42.125C110.078 42.6927 110.661 42.9766 111.391 42.9766C112.125 42.9766 112.708 42.6901 113.141 42.1172C113.573 41.5391 113.789 40.7318 113.789 39.6953C113.789 38.7682 113.568 38.0182 113.125 37.4453C112.688 36.8672 112.104 36.5781 111.375 36.5781C110.661 36.5781 110.086 36.862 109.648 37.4297C109.211 37.9974 108.992 38.8099 108.992 39.8672ZM117.18 44V35.5469H120.477C121.602 35.5469 122.464 35.7448 123.062 36.1406C123.667 36.5312 123.969 37.1068 123.969 37.8672C123.969 38.2578 123.852 38.612 123.617 38.9297C123.383 39.2422 123.036 39.4818 122.578 39.6484C123.089 39.7682 123.497 40.0026 123.805 40.3516C124.117 40.7005 124.273 41.1172 124.273 41.6016C124.273 42.3776 123.987 42.9714 123.414 43.3828C122.846 43.7943 122.042 44 121 44H117.18ZM118.625 40.2891V42.8359H121.016C121.62 42.8359 122.07 42.724 122.367 42.5C122.669 42.276 122.82 41.9609 122.82 41.5547C122.82 40.7109 122.201 40.2891 120.961 40.2891H118.625ZM118.625 39.1328H120.492C121.846 39.1328 122.523 38.737 122.523 37.9453C122.523 37.1536 121.883 36.7448 120.602 36.7188H118.625V39.1328Z" fill="white"/>
<path d="M49.1665 0H11.6666C11.2064 0 10.8333 0.373124 10.8333 0.833332V13.3333H12.5V1.66666H48.3332V47.4999C48.3412 47.9381 48.0031 48.3052 47.5657 48.3332C47.494 48.3332 47.4224 48.3274 47.3507 48.3257C47.2032 48.3216 47.0557 48.3182 46.9107 48.3032C46.8982 48.3032 46.8866 48.3032 46.8741 48.2982C44.1524 48.0007 42.0025 45.8529 41.7024 43.1316C41.7024 43.1199 41.6982 43.1074 41.6966 43.0957C41.6764 42.8977 41.6664 42.6989 41.6666 42.4999V40.8333C41.6666 40.373 41.2934 39.9999 40.8332 39.9999H12.5V24.9999H10.8333V39.9999H4.16664C3.70644 39.9999 3.33331 40.373 3.33331 40.8333V42.4999C3.3379 46.6401 6.6931 49.9953 10.8333 49.9999H47.5832C48.9355 49.9645 50.0103 48.8526 49.9999 47.4999V0.833332C49.9999 0.373124 49.6268 0 49.1665 0ZM10.8333 48.3332C7.6132 48.3296 5.00362 45.72 4.99998 42.4999V41.6666H39.9999V42.4999C40.001 42.7747 40.0169 43.0493 40.0474 43.3224C40.0549 43.3949 40.0691 43.4649 40.0791 43.5366C40.1066 43.7382 40.1399 43.9391 40.1841 44.1366C40.1991 44.2057 40.2182 44.2741 40.2357 44.3432C40.2866 44.5441 40.3441 44.7416 40.4107 44.9366C40.4299 44.9924 40.4499 45.0474 40.4707 45.1032C40.5466 45.3099 40.6324 45.5116 40.7266 45.7107C40.7466 45.7516 40.7649 45.7941 40.7849 45.8316C40.8894 46.0427 41.0041 46.2479 41.1291 46.4474C41.1457 46.4741 41.1607 46.5016 41.1774 46.5307C41.3132 46.7436 41.4599 46.9494 41.6166 47.1474L41.6432 47.1832C41.8251 47.4117 42.0199 47.6295 42.2266 47.8357C42.406 48.0135 42.5921 48.1802 42.7849 48.3357L10.8333 48.3332Z" fill="white"/>
<path d="M27.4999 23.3333C27.721 23.3333 27.9329 23.2454 28.0891 23.0891L31.4224 19.7558C31.7477 19.4304 31.7477 18.9029 31.4224 18.5775L28.0891 15.2441C27.9329 15.0879 27.721 15 27.4999 15H4.16666C1.86552 15 0 16.8655 0 19.1666C0 21.4678 1.86552 23.3333 4.16666 23.3333H27.4999ZM27.2849 16.7966L29.6549 19.1666L27.2849 21.5366L26.6924 19.1666L27.2849 16.7966ZM6.66665 16.6666H25.5999L25.1833 18.3333H8.33332V20H25.1833L25.5999 21.6666H6.66665V16.6666ZM1.66666 19.1666C1.66666 17.7859 2.78593 16.6666 4.16666 16.6666H4.99999V21.6666H4.16666C2.78593 21.6666 1.66666 20.5474 1.66666 19.1666Z" fill="white"/>
<path d="M19.1667 35.8333H44.1666C44.6268 35.8333 44.9999 35.4601 44.9999 34.9999V9.99998C44.9998 9.53977 44.6267 9.16675 44.1664 9.16685C43.9455 9.16685 43.7337 9.25467 43.5774 9.41081L18.5775 34.4108C18.2521 34.7363 18.2522 35.2639 18.5777 35.5893C18.734 35.7454 18.9457 35.8333 19.1667 35.8333ZM43.3333 12.0116V14.1666H41.6666V15.8333H43.3333V17.5H41.6666V19.1666H43.3333V20.8333H41.6666V22.5H43.3333V24.1666H41.6666V25.8333H43.3333V27.4999H41.6666V29.1666H43.3333V30.8333H41.6666V32.4999H43.3333V34.1666H41.6666V32.4999H40V34.1666H38.3333V32.4999H36.6666V34.1666H35V32.4999H33.3333V34.1666H31.6666V32.4999H30V34.1666H28.3333V32.4999H26.6666V34.1666H25V32.4999H23.3333V34.1666H21.1783L43.3333 12.0116Z" fill="white"/>
<path d="M31.2374 30.8333H39.1666C39.6268 30.8333 39.9999 30.4602 39.9999 29.9999V22.0708C39.9998 21.6106 39.6267 21.2376 39.1664 21.2377C38.9455 21.2377 38.7337 21.3255 38.5774 21.4816L30.6483 29.4108C30.3228 29.7363 30.323 30.2639 30.6485 30.5893C30.8047 30.7455 31.0165 30.8333 31.2374 30.8333ZM38.3333 24.0833V29.1666H33.2499L38.3333 24.0833Z" fill="white"/>
<path d="M38.3333 4.99998H21.6666V6.66665H38.3333V4.99998Z" fill="white"/>
<path d="M40.8332 8.33331H19.1666V9.99998H40.8332V8.33331Z" fill="white"/>
<path d="M19.1666 25.8333H14.1666V27.4999H19.1666V25.8333Z" fill="white"/>
<path d="M17.5 29.1666H14.1666V30.8333H17.5V29.1666Z" fill="white"/>
</svg>
